<svg xmlns="http://www.w3.org/2000/svg" width="40" height="40" viewBox="0 0 24 24" fill="white">
    <path d="M23,4.5c-0.8,0.3-1.6,0.5-2.5,0.6C21,4.3,21.6,3.3,21.9,2.1c-0.9,0.6-1.9,1-3,1.2C17.9,2.3,16.6,1.5,15.2,1.5c-2.9,0-5.2,2.4-5.2,5.3c0,0.4,0,0.9,0.1,1.3C6.7,7.9,4.1,6.5,2.3,4.3C1.8,5.2,1.5,6.2,1.5,7.3c0,1.8,0.9,3.4,2.3,4.3c-0.8,0-1.6-0.2-2.3-0.6c0,2.6,1.8,4.7,4.2,5.2c-0.5,0.1-1,0.2-1.5,0.2c-0.4,0-0.8,0-1.2-0.1c0.8,2.4,3,4.1,5.6,4.1c-2.1,1.7-4.8,2.6-7.6,2.6c-0.5,0-1,0-1.5-0.1c2.7,1.7,5.8,2.6,9.1,2.6c10.9,0,16.9-9.1,16.9-16.9c0-0.3,0-0.7,0-1C21.6,6.2,22.4,5.4,23,4.5z"/>
</svg>